<svg xmlns="http://www.w3.org/2000/svg" viewBox="0 0 1024 1024" width="1024" height="1024">
  <rect x="0" y="0" width="1024" height="1024" rx="230" fill="#0A0E14"></rect>
  <rect x="2" y="2" width="1020" height="1020" rx="228" fill="none" stroke="#1F2430" stroke-width="4"></rect>
  <g stroke="#FFB454" stroke-width="30" stroke-linecap="round">
    <line x1="512" y1="300" x2="324" y2="716"></line>
    <line x1="512" y1="300" x2="700" y2="716"></line>
    <line x1="400" y1="548" x2="624" y2="548"></line>
  </g>
  <g fill="#0A0E14" stroke="#FFB454" stroke-width="18">
    <circle cx="324" cy="716" r="40"></circle>
    <circle cx="700" cy="716" r="40"></circle>
    <circle cx="400" cy="548" r="30"></circle>
    <circle cx="624" cy="548" r="30"></circle>
  </g>
  <path d="M512 244 C 531 281, 531 281, 568 300 C 531 319, 531 319, 512 356 C 493 319, 493 319, 456 300 C 493 281, 493 281, 512 244 Z" fill="#FFB454"></path>
</svg>
